<svg xmlns="http://www.w3.org/2000/svg" xmlns:xlink="http://www.w3.org/1999/xlink" width="24" height="24" viewBox="0 0 24 24">
  <defs>
    <linearGradient id="linear-gradient" x1="0.126" y1="0.092" x2="1.17" y2="1.134" gradientUnits="objectBoundingBox">
      <stop offset="0" stop-color="#4c935f"/>
      <stop offset="1" stop-color="#264a30"/>
    </linearGradient>
  </defs>
  <g id="Groupe_168" data-name="Groupe 168" transform="translate(827 54)">
    <rect id="Rectangle_9" data-name="Rectangle 9" width="24" height="24" rx="5" transform="translate(-827 -54)" fill="url(#linear-gradient)"/>
    <g id="Groupe_167" data-name="Groupe 167" transform="translate(-818.113 -51.116)" opacity="0.147">
      <path id="Tracé_20" data-name="Tracé 20" d="M1132.437,164.332v3.215H1132v.777h.5s-.276.724,1.126,1.562a5.827,5.827,0,0,1,1.82,1.476,4.458,4.458,0,0,1,1.747-1.476c1.418-.822,1.161-1.562,1.161-1.562h.437v-.777h-.437v-3.215h.437v-.755h-.755a2.379,2.379,0,0,0,.318-2.484c-.341-.708-1.286-.634-2.02-1.373a3.642,3.642,0,0,1-.887-1.2,3.138,3.138,0,0,1-.836,1.117c-.746.759-1.82.832-2.177,1.536a2.221,2.221,0,0,0,.223,2.409H1132v.755Z" transform="translate(-1132 -155.097)" fill="none" stroke="#000" stroke-width="0.6"/>
      <g id="Groupe_21" data-name="Groupe 21" transform="translate(1.076 9.566)">
        <path id="Tracé_10" data-name="Tracé 10" d="M1139.25,226.134a.255.255,0,0,1,.094-.4,2.058,2.058,0,0,0,.527-.465,1.413,1.413,0,0,0,.477.465.247.247,0,0,1,.073.4V227.6h-1.17Z" transform="translate(-1139.187 -225.268)" fill="none" stroke="#000" stroke-width="0.6"/>
        <path id="Tracé_17" data-name="Tracé 17" d="M1139.25,226.134a.255.255,0,0,1,.094-.4,2.058,2.058,0,0,0,.527-.465,1.413,1.413,0,0,0,.477.465.247.247,0,0,1,.073.4V227.6h-1.17Z" transform="translate(-1137.433 -225.268)" fill="none" stroke="#000" stroke-width="0.6"/>
        <path id="Tracé_18" data-name="Tracé 18" d="M1139.25,226.134a.255.255,0,0,1,.094-.4,2.058,2.058,0,0,0,.527-.465,1.413,1.413,0,0,0,.477.465.247.247,0,0,1,.073.4V227.6h-1.17Z" transform="translate(-1135.679 -225.268)" fill="none" stroke="#000" stroke-width="0.6"/>
      </g>
      <circle id="Ellipse_35" data-name="Ellipse 35" cx="0.281" cy="0.281" r="0.281" transform="translate(3.246 16.709)"/>
      <circle id="Ellipse_36" data-name="Ellipse 36" cx="0.281" cy="0.281" r="0.281" transform="translate(3.246 0.551)"/>
      <circle id="Ellipse_37" data-name="Ellipse 37" cx="0.281" cy="0.281" r="0.281" transform="translate(3.246 2.203)"/>
      <circle id="Ellipse_38" data-name="Ellipse 38" cx="0.187" cy="0.187" r="0.187" transform="translate(3.33 17.719)"/>
      <circle id="Ellipse_39" data-name="Ellipse 39" cx="0.187" cy="0.187" r="0.187" transform="translate(3.33 1.102)"/>
      <circle id="Ellipse_40" data-name="Ellipse 40" cx="0.187" cy="0.187" r="0.187" transform="translate(3.33 0.184)"/>
      <path id="Tracé_21" data-name="Tracé 21" d="M-554.654,182.665v1.5" transform="translate(558.181 -165.45)" fill="none" stroke="#000" stroke-width="0.6"/>
      <path id="Tracé_22" data-name="Tracé 22" d="M-554.654,182.665v2.559" transform="translate(558.181 -182.665)" fill="none" stroke="#000" stroke-width="0.6"/>
      <path id="Tracé_23" data-name="Tracé 23" d="M-559.131,197.374l-.19.324.19.3.184-.3Z" transform="translate(562.661 -178.996)"/>
    </g>
    <g id="Groupe_166" data-name="Groupe 166" transform="translate(-818.3 -51.392)">
      <path id="Tracé_20-2" data-name="Tracé 20" d="M1132.437,164.332v3.215H1132v.777h.5s-.276.724,1.126,1.562a5.827,5.827,0,0,1,1.82,1.476,4.458,4.458,0,0,1,1.747-1.476c1.418-.822,1.161-1.562,1.161-1.562h.437v-.777h-.437v-3.215h.437v-.755h-.755a2.379,2.379,0,0,0,.318-2.484c-.341-.708-1.286-.634-2.02-1.373a3.642,3.642,0,0,1-.887-1.2,3.138,3.138,0,0,1-.836,1.117c-.746.759-1.82.832-2.177,1.536a2.221,2.221,0,0,0,.223,2.409H1132v.755Z" transform="translate(-1132 -155.097)" fill="none" stroke="#fff" stroke-width="0.4"/>
      <g id="Groupe_21-2" data-name="Groupe 21" transform="translate(1.076 9.566)">
        <path id="Tracé_10-2" data-name="Tracé 10" d="M1139.25,226.134a.255.255,0,0,1,.094-.4,2.058,2.058,0,0,0,.527-.465,1.413,1.413,0,0,0,.477.465.247.247,0,0,1,.073.4V227.6h-1.17Z" transform="translate(-1139.187 -225.268)" fill="none" stroke="#fff" stroke-width="0.4"/>
        <path id="Tracé_17-2" data-name="Tracé 17" d="M1139.25,226.134a.255.255,0,0,1,.094-.4,2.058,2.058,0,0,0,.527-.465,1.413,1.413,0,0,0,.477.465.247.247,0,0,1,.073.4V227.6h-1.17Z" transform="translate(-1137.433 -225.268)" fill="none" stroke="#fff" stroke-width="0.4"/>
        <path id="Tracé_18-2" data-name="Tracé 18" d="M1139.25,226.134a.255.255,0,0,1,.094-.4,2.058,2.058,0,0,0,.527-.465,1.413,1.413,0,0,0,.477.465.247.247,0,0,1,.073.4V227.6h-1.17Z" transform="translate(-1135.679 -225.268)" fill="none" stroke="#fff" stroke-width="0.4"/>
      </g>
      <circle id="Ellipse_35-2" data-name="Ellipse 35" cx="0.281" cy="0.281" r="0.281" transform="translate(3.17 16.709)" fill="#fff"/>
      <circle id="Ellipse_36-2" data-name="Ellipse 36" cx="0.281" cy="0.281" r="0.281" transform="translate(3.17 0.551)" fill="#fff"/>
      <circle id="Ellipse_37-2" data-name="Ellipse 37" cx="0.281" cy="0.281" r="0.281" transform="translate(3.17 2.203)" fill="#fff"/>
      <circle id="Ellipse_38-2" data-name="Ellipse 38" cx="0.187" cy="0.187" r="0.187" transform="translate(3.254 17.719)" fill="#fff"/>
      <circle id="Ellipse_39-2" data-name="Ellipse 39" cx="0.187" cy="0.187" r="0.187" transform="translate(3.254 1.102)" fill="#fff"/>
      <circle id="Ellipse_40-2" data-name="Ellipse 40" cx="0.187" cy="0.187" r="0.187" transform="translate(3.254 0.184)" fill="#fff"/>
      <path id="Tracé_21-2" data-name="Tracé 21" d="M-554.654,182.665v1.5" transform="translate(558.104 -165.45)" fill="none" stroke="#fff" stroke-width="0.25"/>
      <path id="Tracé_22-2" data-name="Tracé 22" d="M-554.654,182.665v2.559" transform="translate(558.114 -182.665)" fill="none" stroke="#fff" stroke-width="0.25"/>
      <path id="Tracé_23-2" data-name="Tracé 23" d="M-559.131,197.374l-.19.324.19.3.184-.3Z" transform="translate(562.571 -178.996)" fill="#fff"/>
    </g>
  </g>
</svg>
