<svg xmlns="http://www.w3.org/2000/svg" xmlns:xlink="http://www.w3.org/1999/xlink" width="412.402" height="750.402" viewBox="0 0 412.402 750.402">
  <defs>
    <clipPath id="clip-path">
      <rect x="71" y="30" width="412.402" height="750.402" fill="none"/>
    </clipPath>
  </defs>
  <g id="Groupe_défilant_2" data-name="Groupe défilant 2" transform="translate(-71 -30)" clip-path="url(#clip-path)" style="isolation: isolate">
    <g id="Groupe_78" data-name="Groupe 78" transform="translate(-920.257 -937.147)" opacity="0.358">
      <g id="Groupe_75" data-name="Groupe 75" transform="translate(-83 91.89)">
        <g id="Groupe_73" data-name="Groupe 73">
          <g id="Groupe_69" data-name="Groupe 69" transform="translate(-46 -9)">
            <g id="Groupe_68" data-name="Groupe 68" transform="translate(849.839 372)">
              <path id="Tracé_36" data-name="Tracé 36" d="M1240.668,537.761l33.924-34.112V551.7L1310,585.2h-49.714l-33.9,35.8V571.1l-34.935-33.343Z" transform="translate(-967 5)" fill="none" stroke="#707070" stroke-width="1"/>
              <path id="Tracé_37" data-name="Tracé 37" d="M1240.668,537.761l33.924-34.112V551.7l35.294,35.294-49.6-1.792-33.9,35.8V571.1l-35.157-35.157Z" transform="translate(-997.295 1054.096) rotate(-45)" fill="none" stroke="#707070" stroke-width="1"/>
            </g>
            <path id="Tracé_42" data-name="Tracé 42" d="M1182,565l8-8,24,24v32h-8v-8h32l24,24-8,8-8-8,24-24h32v8h-8V581l24-24,8,8-8,8-24-24V517h8v8h-32l-24-24,8-8,8,8-24,24h-32v-8h8v32l-24,24Z" transform="translate(-121 374)" fill="none" stroke="#707070" stroke-width="1"/>
          </g>
          <g id="Groupe_71" data-name="Groupe 71" transform="translate(-46 119)">
            <g id="Groupe_68-2" data-name="Groupe 68" transform="translate(849.839 372)">
              <path id="Tracé_36-2" data-name="Tracé 36" d="M1240.668,537.761l33.924-34.112V551.7L1310,585.2h-49.714l-33.9,35.8V571.1l-34.935-33.343Z" transform="translate(-967 5)" fill="none" stroke="#707070" stroke-width="1"/>
              <path id="Tracé_37-2" data-name="Tracé 37" d="M1240.668,537.761l33.924-34.112V551.7l35.294,35.294-49.6-1.792-33.9,35.8V571.1l-35.157-35.157Z" transform="translate(-997.295 1054.096) rotate(-45)" fill="none" stroke="#707070" stroke-width="1"/>
            </g>
            <path id="Tracé_42-2" data-name="Tracé 42" d="M1182,565l8-8,24,24v32h-8v-8h32l24,24-8,8-8-8,24-24h32v8h-8V581l24-24,8,8-8,8-24-24V517h8v8h-32l-24-24,8-8,8,8-24,24h-32v-8h8v32l-24,24Z" transform="translate(-121 374)" fill="none" stroke="#707070" stroke-width="1"/>
          </g>
          <g id="Groupe_70" data-name="Groupe 70" transform="translate(82 -9)">
            <g id="Groupe_68-3" data-name="Groupe 68" transform="translate(849.839 372)">
              <path id="Tracé_36-3" data-name="Tracé 36" d="M1240.668,537.761l33.924-34.112V551.7L1310,585.2h-49.714l-33.9,35.8V571.1l-34.935-33.343Z" transform="translate(-967 5)" fill="none" stroke="#707070" stroke-width="1"/>
              <path id="Tracé_37-3" data-name="Tracé 37" d="M1240.668,537.761l33.924-34.112V551.7l35.294,35.294-49.6-1.792-33.9,35.8V571.1l-35.157-35.157Z" transform="translate(-997.295 1054.096) rotate(-45)" fill="none" stroke="#707070" stroke-width="1"/>
            </g>
            <path id="Tracé_42-3" data-name="Tracé 42" d="M1182,565l8-8,24,24v32h-8v-8h32l24,24-8,8-8-8,24-24h32v8h-8V581l24-24,8,8-8,8-24-24V517h8v8h-32l-24-24,8-8,8,8-24,24h-32v-8h8v32l-24,24Z" transform="translate(-121 374)" fill="none" stroke="#707070" stroke-width="1"/>
          </g>
          <g id="Groupe_72" data-name="Groupe 72" transform="translate(82 119)">
            <g id="Groupe_68-4" data-name="Groupe 68" transform="translate(849.839 372)">
              <path id="Tracé_36-4" data-name="Tracé 36" d="M1240.668,537.761l33.924-34.112V551.7L1310,585.2h-49.714l-33.9,35.8V571.1l-34.935-33.343Z" transform="translate(-967 5)" fill="none" stroke="#707070" stroke-width="1"/>
              <path id="Tracé_37-4" data-name="Tracé 37" d="M1240.668,537.761l33.924-34.112V551.7l35.294,35.294-49.6-1.792-33.9,35.8V571.1l-35.157-35.157Z" transform="translate(-997.295 1054.096) rotate(-45)" fill="none" stroke="#707070" stroke-width="1"/>
            </g>
            <path id="Tracé_42-4" data-name="Tracé 42" d="M1182,565l8-8,24,24v32h-8v-8h32l24,24-8,8-8-8,24-24h32v8h-8V581l24-24,8,8-8,8-24-24V517h8v8h-32l-24-24,8-8,8,8-24,24h-32v-8h8v32l-24,24Z" transform="translate(-121 374)" fill="none" stroke="#707070" stroke-width="1"/>
          </g>
        </g>
        <g id="Groupe_74" data-name="Groupe 74" transform="translate(256)">
          <g id="Groupe_69-2" data-name="Groupe 69" transform="translate(-46 -9)">
            <g id="Groupe_68-5" data-name="Groupe 68" transform="translate(849.839 372)">
              <path id="Tracé_36-5" data-name="Tracé 36" d="M1240.668,537.761l33.924-34.112V551.7L1310,585.2h-49.714l-33.9,35.8V571.1l-34.935-33.343Z" transform="translate(-967 5)" fill="none" stroke="#707070" stroke-width="1"/>
              <path id="Tracé_37-5" data-name="Tracé 37" d="M1240.668,537.761l33.924-34.112V551.7l35.294,35.294-49.6-1.792-33.9,35.8V571.1l-35.157-35.157Z" transform="translate(-997.295 1054.096) rotate(-45)" fill="none" stroke="#707070" stroke-width="1"/>
            </g>
            <path id="Tracé_42-5" data-name="Tracé 42" d="M1182,565l8-8,24,24v32h-8v-8h32l24,24-8,8-8-8,24-24h32v8h-8V581l24-24,8,8-8,8-24-24V517h8v8h-32l-24-24,8-8,8,8-24,24h-32v-8h8v32l-24,24Z" transform="translate(-121 374)" fill="none" stroke="#707070" stroke-width="1"/>
          </g>
          <g id="Groupe_71-2" data-name="Groupe 71" transform="translate(-46 119)">
            <g id="Groupe_68-6" data-name="Groupe 68" transform="translate(849.839 372)">
              <path id="Tracé_36-6" data-name="Tracé 36" d="M1240.668,537.761l33.924-34.112V551.7L1310,585.2h-49.714l-33.9,35.8V571.1l-34.935-33.343Z" transform="translate(-967 5)" fill="none" stroke="#707070" stroke-width="1"/>
              <path id="Tracé_37-6" data-name="Tracé 37" d="M1240.668,537.761l33.924-34.112V551.7l35.294,35.294-49.6-1.792-33.9,35.8V571.1l-35.157-35.157Z" transform="translate(-997.295 1054.096) rotate(-45)" fill="none" stroke="#707070" stroke-width="1"/>
            </g>
            <path id="Tracé_42-6" data-name="Tracé 42" d="M1182,565l8-8,24,24v32h-8v-8h32l24,24-8,8-8-8,24-24h32v8h-8V581l24-24,8,8-8,8-24-24V517h8v8h-32l-24-24,8-8,8,8-24,24h-32v-8h8v32l-24,24Z" transform="translate(-121 374)" fill="none" stroke="#707070" stroke-width="1"/>
          </g>
          <g id="Groupe_70-2" data-name="Groupe 70" transform="translate(82 -9)">
            <g id="Groupe_68-7" data-name="Groupe 68" transform="translate(849.839 372)">
              <path id="Tracé_36-7" data-name="Tracé 36" d="M1240.668,537.761l33.924-34.112V551.7L1310,585.2h-49.714l-33.9,35.8V571.1l-34.935-33.343Z" transform="translate(-967 5)" fill="none" stroke="#707070" stroke-width="1"/>
              <path id="Tracé_37-7" data-name="Tracé 37" d="M1240.668,537.761l33.924-34.112V551.7l35.294,35.294-49.6-1.792-33.9,35.8V571.1l-35.157-35.157Z" transform="translate(-997.295 1054.096) rotate(-45)" fill="none" stroke="#707070" stroke-width="1"/>
            </g>
            <path id="Tracé_42-7" data-name="Tracé 42" d="M1182,565l8-8,24,24v32h-8v-8h32l24,24-8,8-8-8,24-24h32v8h-8V581l24-24,8,8-8,8-24-24V517h8v8h-32l-24-24,8-8,8,8-24,24h-32v-8h8v32l-24,24Z" transform="translate(-121 374)" fill="none" stroke="#707070" stroke-width="1"/>
          </g>
          <g id="Groupe_72-2" data-name="Groupe 72" transform="translate(82 119)">
            <g id="Groupe_68-8" data-name="Groupe 68" transform="translate(849.839 372)">
              <path id="Tracé_36-8" data-name="Tracé 36" d="M1240.668,537.761l33.924-34.112V551.7L1310,585.2h-49.714l-33.9,35.8V571.1l-34.935-33.343Z" transform="translate(-967 5)" fill="none" stroke="#707070" stroke-width="1"/>
              <path id="Tracé_37-8" data-name="Tracé 37" d="M1240.668,537.761l33.924-34.112V551.7l35.294,35.294-49.6-1.792-33.9,35.8V571.1l-35.157-35.157Z" transform="translate(-997.295 1054.096) rotate(-45)" fill="none" stroke="#707070" stroke-width="1"/>
            </g>
            <path id="Tracé_42-8" data-name="Tracé 42" d="M1182,565l8-8,24,24v32h-8v-8h32l24,24-8,8-8-8,24-24h32v8h-8V581l24-24,8,8-8,8-24-24V517h8v8h-32l-24-24,8-8,8,8-24,24h-32v-8h8v32l-24,24Z" transform="translate(-121 374)" fill="none" stroke="#707070" stroke-width="1"/>
          </g>
        </g>
      </g>
      <g id="Groupe_76" data-name="Groupe 76" transform="translate(-83 347.89)">
        <g id="Groupe_73-2" data-name="Groupe 73">
          <g id="Groupe_69-3" data-name="Groupe 69" transform="translate(-46 -9)">
            <g id="Groupe_68-9" data-name="Groupe 68" transform="translate(849.839 372)">
              <path id="Tracé_36-9" data-name="Tracé 36" d="M1240.668,537.761l33.924-34.112V551.7L1310,585.2h-49.714l-33.9,35.8V571.1l-34.935-33.343Z" transform="translate(-967 5)" fill="none" stroke="#707070" stroke-width="1"/>
              <path id="Tracé_37-9" data-name="Tracé 37" d="M1240.668,537.761l33.924-34.112V551.7l35.294,35.294-49.6-1.792-33.9,35.8V571.1l-35.157-35.157Z" transform="translate(-997.295 1054.096) rotate(-45)" fill="none" stroke="#707070" stroke-width="1"/>
            </g>
            <path id="Tracé_42-9" data-name="Tracé 42" d="M1182,565l8-8,24,24v32h-8v-8h32l24,24-8,8-8-8,24-24h32v8h-8V581l24-24,8,8-8,8-24-24V517h8v8h-32l-24-24,8-8,8,8-24,24h-32v-8h8v32l-24,24Z" transform="translate(-121 374)" fill="none" stroke="#707070" stroke-width="1"/>
          </g>
          <g id="Groupe_71-3" data-name="Groupe 71" transform="translate(-46 119)">
            <g id="Groupe_68-10" data-name="Groupe 68" transform="translate(849.839 372)">
              <path id="Tracé_36-10" data-name="Tracé 36" d="M1240.668,537.761l33.924-34.112V551.7L1310,585.2h-49.714l-33.9,35.8V571.1l-34.935-33.343Z" transform="translate(-967 5)" fill="none" stroke="#707070" stroke-width="1"/>
              <path id="Tracé_37-10" data-name="Tracé 37" d="M1240.668,537.761l33.924-34.112V551.7l35.294,35.294-49.6-1.792-33.9,35.8V571.1l-35.157-35.157Z" transform="translate(-997.295 1054.096) rotate(-45)" fill="none" stroke="#707070" stroke-width="1"/>
            </g>
            <path id="Tracé_42-10" data-name="Tracé 42" d="M1182,565l8-8,24,24v32h-8v-8h32l24,24-8,8-8-8,24-24h32v8h-8V581l24-24,8,8-8,8-24-24V517h8v8h-32l-24-24,8-8,8,8-24,24h-32v-8h8v32l-24,24Z" transform="translate(-121 374)" fill="none" stroke="#707070" stroke-width="1"/>
          </g>
          <g id="Groupe_70-3" data-name="Groupe 70" transform="translate(82 -9)">
            <g id="Groupe_68-11" data-name="Groupe 68" transform="translate(849.839 372)">
              <path id="Tracé_36-11" data-name="Tracé 36" d="M1240.668,537.761l33.924-34.112V551.7L1310,585.2h-49.714l-33.9,35.8V571.1l-34.935-33.343Z" transform="translate(-967 5)" fill="none" stroke="#707070" stroke-width="1"/>
              <path id="Tracé_37-11" data-name="Tracé 37" d="M1240.668,537.761l33.924-34.112V551.7l35.294,35.294-49.6-1.792-33.9,35.8V571.1l-35.157-35.157Z" transform="translate(-997.295 1054.096) rotate(-45)" fill="none" stroke="#707070" stroke-width="1"/>
            </g>
            <path id="Tracé_42-11" data-name="Tracé 42" d="M1182,565l8-8,24,24v32h-8v-8h32l24,24-8,8-8-8,24-24h32v8h-8V581l24-24,8,8-8,8-24-24V517h8v8h-32l-24-24,8-8,8,8-24,24h-32v-8h8v32l-24,24Z" transform="translate(-121 374)" fill="none" stroke="#707070" stroke-width="1"/>
          </g>
          <g id="Groupe_72-3" data-name="Groupe 72" transform="translate(82 119)">
            <g id="Groupe_68-12" data-name="Groupe 68" transform="translate(849.839 372)">
              <path id="Tracé_36-12" data-name="Tracé 36" d="M1240.668,537.761l33.924-34.112V551.7L1310,585.2h-49.714l-33.9,35.8V571.1l-34.935-33.343Z" transform="translate(-967 5)" fill="none" stroke="#707070" stroke-width="1"/>
              <path id="Tracé_37-12" data-name="Tracé 37" d="M1240.668,537.761l33.924-34.112V551.7l35.294,35.294-49.6-1.792-33.9,35.8V571.1l-35.157-35.157Z" transform="translate(-997.295 1054.096) rotate(-45)" fill="none" stroke="#707070" stroke-width="1"/>
            </g>
            <path id="Tracé_42-12" data-name="Tracé 42" d="M1182,565l8-8,24,24v32h-8v-8h32l24,24-8,8-8-8,24-24h32v8h-8V581l24-24,8,8-8,8-24-24V517h8v8h-32l-24-24,8-8,8,8-24,24h-32v-8h8v32l-24,24Z" transform="translate(-121 374)" fill="none" stroke="#707070" stroke-width="1"/>
          </g>
        </g>
        <g id="Groupe_74-2" data-name="Groupe 74" transform="translate(256)">
          <g id="Groupe_69-4" data-name="Groupe 69" transform="translate(-46 -9)">
            <g id="Groupe_68-13" data-name="Groupe 68" transform="translate(849.839 372)">
              <path id="Tracé_36-13" data-name="Tracé 36" d="M1240.668,537.761l33.924-34.112V551.7L1310,585.2h-49.714l-33.9,35.8V571.1l-34.935-33.343Z" transform="translate(-967 5)" fill="none" stroke="#707070" stroke-width="1"/>
              <path id="Tracé_37-13" data-name="Tracé 37" d="M1240.668,537.761l33.924-34.112V551.7l35.294,35.294-49.6-1.792-33.9,35.8V571.1l-35.157-35.157Z" transform="translate(-997.295 1054.096) rotate(-45)" fill="none" stroke="#707070" stroke-width="1"/>
            </g>
            <path id="Tracé_42-13" data-name="Tracé 42" d="M1182,565l8-8,24,24v32h-8v-8h32l24,24-8,8-8-8,24-24h32v8h-8V581l24-24,8,8-8,8-24-24V517h8v8h-32l-24-24,8-8,8,8-24,24h-32v-8h8v32l-24,24Z" transform="translate(-121 374)" fill="none" stroke="#707070" stroke-width="1"/>
          </g>
          <g id="Groupe_71-4" data-name="Groupe 71" transform="translate(-46 119)">
            <g id="Groupe_68-14" data-name="Groupe 68" transform="translate(849.839 372)">
              <path id="Tracé_36-14" data-name="Tracé 36" d="M1240.668,537.761l33.924-34.112V551.7L1310,585.2h-49.714l-33.9,35.8V571.1l-34.935-33.343Z" transform="translate(-967 5)" fill="none" stroke="#707070" stroke-width="1"/>
              <path id="Tracé_37-14" data-name="Tracé 37" d="M1240.668,537.761l33.924-34.112V551.7l35.294,35.294-49.6-1.792-33.9,35.8V571.1l-35.157-35.157Z" transform="translate(-997.295 1054.096) rotate(-45)" fill="none" stroke="#707070" stroke-width="1"/>
            </g>
            <path id="Tracé_42-14" data-name="Tracé 42" d="M1182,565l8-8,24,24v32h-8v-8h32l24,24-8,8-8-8,24-24h32v8h-8V581l24-24,8,8-8,8-24-24V517h8v8h-32l-24-24,8-8,8,8-24,24h-32v-8h8v32l-24,24Z" transform="translate(-121 374)" fill="none" stroke="#707070" stroke-width="1"/>
          </g>
          <g id="Groupe_70-4" data-name="Groupe 70" transform="translate(82 -9)">
            <g id="Groupe_68-15" data-name="Groupe 68" transform="translate(849.839 372)">
              <path id="Tracé_36-15" data-name="Tracé 36" d="M1240.668,537.761l33.924-34.112V551.7L1310,585.2h-49.714l-33.9,35.8V571.1l-34.935-33.343Z" transform="translate(-967 5)" fill="none" stroke="#707070" stroke-width="1"/>
              <path id="Tracé_37-15" data-name="Tracé 37" d="M1240.668,537.761l33.924-34.112V551.7l35.294,35.294-49.6-1.792-33.9,35.8V571.1l-35.157-35.157Z" transform="translate(-997.295 1054.096) rotate(-45)" fill="none" stroke="#707070" stroke-width="1"/>
            </g>
            <path id="Tracé_42-15" data-name="Tracé 42" d="M1182,565l8-8,24,24v32h-8v-8h32l24,24-8,8-8-8,24-24h32v8h-8V581l24-24,8,8-8,8-24-24V517h8v8h-32l-24-24,8-8,8,8-24,24h-32v-8h8v32l-24,24Z" transform="translate(-121 374)" fill="none" stroke="#707070" stroke-width="1"/>
          </g>
          <g id="Groupe_72-4" data-name="Groupe 72" transform="translate(82 119)">
            <g id="Groupe_68-16" data-name="Groupe 68" transform="translate(849.839 372)">
              <path id="Tracé_36-16" data-name="Tracé 36" d="M1240.668,537.761l33.924-34.112V551.7L1310,585.2h-49.714l-33.9,35.8V571.1l-34.935-33.343Z" transform="translate(-967 5)" fill="none" stroke="#707070" stroke-width="1"/>
              <path id="Tracé_37-16" data-name="Tracé 37" d="M1240.668,537.761l33.924-34.112V551.7l35.294,35.294-49.6-1.792-33.9,35.8V571.1l-35.157-35.157Z" transform="translate(-997.295 1054.096) rotate(-45)" fill="none" stroke="#707070" stroke-width="1"/>
            </g>
            <path id="Tracé_42-16" data-name="Tracé 42" d="M1182,565l8-8,24,24v32h-8v-8h32l24,24-8,8-8-8,24-24h32v8h-8V581l24-24,8,8-8,8-24-24V517h8v8h-32l-24-24,8-8,8,8-24,24h-32v-8h8v32l-24,24Z" transform="translate(-121 374)" fill="none" stroke="#707070" stroke-width="1"/>
          </g>
        </g>
      </g>
      <g id="Groupe_77" data-name="Groupe 77" transform="translate(-83 603.89)">
        <g id="Groupe_73-3" data-name="Groupe 73">
          <g id="Groupe_69-5" data-name="Groupe 69" transform="translate(-46 -9)">
            <g id="Groupe_68-17" data-name="Groupe 68" transform="translate(849.839 372)">
              <path id="Tracé_36-17" data-name="Tracé 36" d="M1240.668,537.761l33.924-34.112V551.7L1310,585.2h-49.714l-33.9,35.8V571.1l-34.935-33.343Z" transform="translate(-967 5)" fill="none" stroke="#707070" stroke-width="1"/>
              <path id="Tracé_37-17" data-name="Tracé 37" d="M1240.668,537.761l33.924-34.112V551.7l35.294,35.294-49.6-1.792-33.9,35.8V571.1l-35.157-35.157Z" transform="translate(-997.295 1054.096) rotate(-45)" fill="none" stroke="#707070" stroke-width="1"/>
            </g>
            <path id="Tracé_42-17" data-name="Tracé 42" d="M1182,565l8-8,24,24v32h-8v-8h32l24,24-8,8-8-8,24-24h32v8h-8V581l24-24,8,8-8,8-24-24V517h8v8h-32l-24-24,8-8,8,8-24,24h-32v-8h8v32l-24,24Z" transform="translate(-121 374)" fill="none" stroke="#707070" stroke-width="1"/>
          </g>
          <g id="Groupe_71-5" data-name="Groupe 71" transform="translate(-46 119)">
            <g id="Groupe_68-18" data-name="Groupe 68" transform="translate(849.839 372)">
              <path id="Tracé_36-18" data-name="Tracé 36" d="M1240.668,537.761l33.924-34.112V551.7L1310,585.2h-49.714l-33.9,35.8V571.1l-34.935-33.343Z" transform="translate(-967 5)" fill="none" stroke="#707070" stroke-width="1"/>
              <path id="Tracé_37-18" data-name="Tracé 37" d="M1240.668,537.761l33.924-34.112V551.7l35.294,35.294-49.6-1.792-33.9,35.8V571.1l-35.157-35.157Z" transform="translate(-997.295 1054.096) rotate(-45)" fill="none" stroke="#707070" stroke-width="1"/>
            </g>
            <path id="Tracé_42-18" data-name="Tracé 42" d="M1182,565l8-8,24,24v32h-8v-8h32l24,24-8,8-8-8,24-24h32v8h-8V581l24-24,8,8-8,8-24-24V517h8v8h-32l-24-24,8-8,8,8-24,24h-32v-8h8v32l-24,24Z" transform="translate(-121 374)" fill="none" stroke="#707070" stroke-width="1"/>
          </g>
          <g id="Groupe_70-5" data-name="Groupe 70" transform="translate(82 -9)">
            <g id="Groupe_68-19" data-name="Groupe 68" transform="translate(849.839 372)">
              <path id="Tracé_36-19" data-name="Tracé 36" d="M1240.668,537.761l33.924-34.112V551.7L1310,585.2h-49.714l-33.9,35.8V571.1l-34.935-33.343Z" transform="translate(-967 5)" fill="none" stroke="#707070" stroke-width="1"/>
              <path id="Tracé_37-19" data-name="Tracé 37" d="M1240.668,537.761l33.924-34.112V551.7l35.294,35.294-49.6-1.792-33.9,35.8V571.1l-35.157-35.157Z" transform="translate(-997.295 1054.096) rotate(-45)" fill="none" stroke="#707070" stroke-width="1"/>
            </g>
            <path id="Tracé_42-19" data-name="Tracé 42" d="M1182,565l8-8,24,24v32h-8v-8h32l24,24-8,8-8-8,24-24h32v8h-8V581l24-24,8,8-8,8-24-24V517h8v8h-32l-24-24,8-8,8,8-24,24h-32v-8h8v32l-24,24Z" transform="translate(-121 374)" fill="none" stroke="#707070" stroke-width="1"/>
          </g>
          <g id="Groupe_72-5" data-name="Groupe 72" transform="translate(82 119)">
            <g id="Groupe_68-20" data-name="Groupe 68" transform="translate(849.839 372)">
              <path id="Tracé_36-20" data-name="Tracé 36" d="M1240.668,537.761l33.924-34.112V551.7L1310,585.2h-49.714l-33.9,35.8V571.1l-34.935-33.343Z" transform="translate(-967 5)" fill="none" stroke="#707070" stroke-width="1"/>
              <path id="Tracé_37-20" data-name="Tracé 37" d="M1240.668,537.761l33.924-34.112V551.7l35.294,35.294-49.6-1.792-33.9,35.8V571.1l-35.157-35.157Z" transform="translate(-997.295 1054.096) rotate(-45)" fill="none" stroke="#707070" stroke-width="1"/>
            </g>
            <path id="Tracé_42-20" data-name="Tracé 42" d="M1182,565l8-8,24,24v32h-8v-8h32l24,24-8,8-8-8,24-24h32v8h-8V581l24-24,8,8-8,8-24-24V517h8v8h-32l-24-24,8-8,8,8-24,24h-32v-8h8v32l-24,24Z" transform="translate(-121 374)" fill="none" stroke="#707070" stroke-width="1"/>
          </g>
        </g>
        <g id="Groupe_74-3" data-name="Groupe 74" transform="translate(256)">
          <g id="Groupe_69-6" data-name="Groupe 69" transform="translate(-46 -9)">
            <g id="Groupe_68-21" data-name="Groupe 68" transform="translate(849.839 372)">
              <path id="Tracé_36-21" data-name="Tracé 36" d="M1240.668,537.761l33.924-34.112V551.7L1310,585.2h-49.714l-33.9,35.8V571.1l-34.935-33.343Z" transform="translate(-967 5)" fill="none" stroke="#707070" stroke-width="1"/>
              <path id="Tracé_37-21" data-name="Tracé 37" d="M1240.668,537.761l33.924-34.112V551.7l35.294,35.294-49.6-1.792-33.9,35.8V571.1l-35.157-35.157Z" transform="translate(-997.295 1054.096) rotate(-45)" fill="none" stroke="#707070" stroke-width="1"/>
            </g>
            <path id="Tracé_42-21" data-name="Tracé 42" d="M1182,565l8-8,24,24v32h-8v-8h32l24,24-8,8-8-8,24-24h32v8h-8V581l24-24,8,8-8,8-24-24V517h8v8h-32l-24-24,8-8,8,8-24,24h-32v-8h8v32l-24,24Z" transform="translate(-121 374)" fill="none" stroke="#707070" stroke-width="1"/>
          </g>
          <g id="Groupe_71-6" data-name="Groupe 71" transform="translate(-46 119)">
            <g id="Groupe_68-22" data-name="Groupe 68" transform="translate(849.839 372)">
              <path id="Tracé_36-22" data-name="Tracé 36" d="M1240.668,537.761l33.924-34.112V551.7L1310,585.2h-49.714l-33.9,35.8V571.1l-34.935-33.343Z" transform="translate(-967 5)" fill="none" stroke="#707070" stroke-width="1"/>
              <path id="Tracé_37-22" data-name="Tracé 37" d="M1240.668,537.761l33.924-34.112V551.7l35.294,35.294-49.6-1.792-33.9,35.8V571.1l-35.157-35.157Z" transform="translate(-997.295 1054.096) rotate(-45)" fill="none" stroke="#707070" stroke-width="1"/>
            </g>
            <path id="Tracé_42-22" data-name="Tracé 42" d="M1182,565l8-8,24,24v32h-8v-8h32l24,24-8,8-8-8,24-24h32v8h-8V581l24-24,8,8-8,8-24-24V517h8v8h-32l-24-24,8-8,8,8-24,24h-32v-8h8v32l-24,24Z" transform="translate(-121 374)" fill="none" stroke="#707070" stroke-width="1"/>
          </g>
          <g id="Groupe_70-6" data-name="Groupe 70" transform="translate(82 -9)">
            <g id="Groupe_68-23" data-name="Groupe 68" transform="translate(849.839 372)">
              <path id="Tracé_36-23" data-name="Tracé 36" d="M1240.668,537.761l33.924-34.112V551.7L1310,585.2h-49.714l-33.9,35.8V571.1l-34.935-33.343Z" transform="translate(-967 5)" fill="none" stroke="#707070" stroke-width="1"/>
              <path id="Tracé_37-23" data-name="Tracé 37" d="M1240.668,537.761l33.924-34.112V551.7l35.294,35.294-49.6-1.792-33.9,35.8V571.1l-35.157-35.157Z" transform="translate(-997.295 1054.096) rotate(-45)" fill="none" stroke="#707070" stroke-width="1"/>
            </g>
            <path id="Tracé_42-23" data-name="Tracé 42" d="M1182,565l8-8,24,24v32h-8v-8h32l24,24-8,8-8-8,24-24h32v8h-8V581l24-24,8,8-8,8-24-24V517h8v8h-32l-24-24,8-8,8,8-24,24h-32v-8h8v32l-24,24Z" transform="translate(-121 374)" fill="none" stroke="#707070" stroke-width="1"/>
          </g>
          <g id="Groupe_72-6" data-name="Groupe 72" transform="translate(82 119)">
            <g id="Groupe_68-24" data-name="Groupe 68" transform="translate(849.839 372)">
              <path id="Tracé_36-24" data-name="Tracé 36" d="M1240.668,537.761l33.924-34.112V551.7L1310,585.2h-49.714l-33.9,35.8V571.1l-34.935-33.343Z" transform="translate(-967 5)" fill="none" stroke="#707070" stroke-width="1"/>
              <path id="Tracé_37-24" data-name="Tracé 37" d="M1240.668,537.761l33.924-34.112V551.7l35.294,35.294-49.6-1.792-33.9,35.8V571.1l-35.157-35.157Z" transform="translate(-997.295 1054.096) rotate(-45)" fill="none" stroke="#707070" stroke-width="1"/>
            </g>
            <path id="Tracé_42-24" data-name="Tracé 42" d="M1182,565l8-8,24,24v32h-8v-8h32l24,24-8,8-8-8,24-24h32v8h-8V581l24-24,8,8-8,8-24-24V517h8v8h-32l-24-24,8-8,8,8-24,24h-32v-8h8v32l-24,24Z" transform="translate(-121 374)" fill="none" stroke="#707070" stroke-width="1"/>
          </g>
        </g>
      </g>
    </g>
  </g>
</svg>
